<svg width="55" height="13" viewBox="0 0 55 13" fill="none" xmlns="http://www.w3.org/2000/svg">
<path d="M8.059 3.004C7.539 3.07333 6.99733 3.13833 6.434 3.199C5.87933 3.25967 5.29433 3.33333 4.679 3.42C4.55767 3.77533 4.44933 4.16533 4.354 4.59C4.26733 5.01467 4.15033 5.461 4.003 5.929C4.25433 5.903 4.50567 5.88133 4.757 5.864C5.017 5.838 5.28133 5.82067 5.55 5.812C5.97467 5.786 6.28233 5.92033 6.473 6.215C6.577 6.38833 6.655 6.56167 6.707 6.735C6.76767 6.89967 6.81967 7.06867 6.863 7.242C6.93233 7.44133 6.93233 7.58 6.863 7.658C6.80233 7.72733 6.655 7.775 6.421 7.801C5.927 7.879 5.42867 7.96567 4.926 8.061C4.42333 8.15633 3.925 8.256 3.431 8.36C3.26633 9.02733 3.119 9.66433 2.989 10.271C2.86767 10.869 2.755 11.402 2.651 11.87C2.64233 12.026 2.56867 12.117 2.43 12.143C2.29133 12.1777 2.12233 12.1777 1.923 12.143C1.72367 12.117 1.51133 12.065 1.286 11.987C1.06933 11.909 0.878667 11.8353 0.714 11.766C0.497333 11.662 0.367333 11.5493 0.324 11.428C0.280667 11.3067 0.259 11.1333 0.259 10.908C0.267667 10.6653 0.306667 10.323 0.376 9.881C0.436667 9.43033 0.510333 8.92767 0.597 8.373C0.683667 7.80967 0.774667 7.21167 0.87 6.579C0.965333 5.94633 1.04767 5.32233 1.117 4.707C1.195 4.083 1.25133 3.48933 1.286 2.926C1.32067 2.36267 1.325 1.86867 1.299 1.444C1.67167 1.34 2.08767 1.249 2.547 1.171C3.015 1.08433 3.50467 1.01067 4.016 0.95C4.52733 0.880666 5.04733 0.824333 5.576 0.781C6.11333 0.737666 6.642 0.707333 7.162 0.689999C7.292 0.689999 7.40033 0.698666 7.487 0.716C7.58233 0.724666 7.66467 0.750666 7.734 0.793999C7.812 0.828666 7.88567 0.884999 7.955 0.963C8.02433 1.03233 8.098 1.12767 8.176 1.249C8.41 1.639 8.54433 2.02033 8.579 2.393C8.61367 2.61833 8.60067 2.77 8.54 2.848C8.47933 2.91733 8.319 2.96933 8.059 3.004ZM13.8351 9.543C13.1851 9.62967 12.5351 9.72067 11.8851 9.816C11.2437 9.90267 10.6761 10.011 10.1821 10.141C10.0087 10.479 9.85706 10.7953 9.72706 11.09C9.59706 11.376 9.4714 11.6577 9.35006 11.935C9.28073 12.0823 9.19406 12.169 9.09006 12.195C8.99473 12.221 8.8474 12.1993 8.64806 12.13C8.5354 12.0867 8.41406 12.039 8.28406 11.987C8.1454 11.9263 8.00673 11.8613 7.86806 11.792C7.76406 11.7227 7.67306 11.6663 7.59506 11.623C7.51706 11.571 7.4564 11.5103 7.41306 11.441C7.36973 11.3717 7.34806 11.285 7.34806 11.181C7.3394 11.0683 7.36106 10.921 7.41306 10.739C7.62106 10.141 7.89406 9.439 8.23206 8.633C8.5614 7.827 8.91673 6.995 9.29806 6.137C9.68806 5.279 10.0824 4.434 10.4811 3.602C10.8884 2.76133 11.2741 2.016 11.6381 1.366C11.7681 1.132 11.9371 0.941333 12.1451 0.793999C12.3531 0.646666 12.6607 0.590332 13.0681 0.624999C13.4234 0.642333 13.7397 0.672666 14.0171 0.716C14.2944 0.750666 14.5457 0.794 14.7711 0.845999C15.0051 0.897999 15.2174 0.954333 15.4081 1.015C15.6074 1.07567 15.8067 1.132 16.0061 1.184C16.2747 1.27933 16.4437 1.405 16.5131 1.561C16.5911 1.717 16.6171 1.92067 16.5911 2.172C16.5391 2.78733 16.4957 3.49367 16.4611 4.291C16.4264 5.08833 16.4004 5.92033 16.3831 6.787C16.3657 7.65367 16.3527 8.52467 16.3441 9.4C16.3441 10.2667 16.3484 11.0727 16.3571 11.818C16.3571 11.974 16.3224 12.0823 16.2531 12.143C16.1924 12.2037 16.0494 12.234 15.8241 12.234C15.5987 12.234 15.3907 12.2253 15.2001 12.208C15.0094 12.1993 14.8144 12.1603 14.6151 12.091C14.4071 12.0303 14.2597 11.9523 14.1731 11.857C14.0951 11.7617 14.0387 11.5927 14.0041 11.35C13.9694 11.0987 13.9391 10.8257 13.9131 10.531C13.8871 10.2277 13.8611 9.89833 13.8351 9.543ZM11.3521 7.723C11.7421 7.66233 12.1321 7.61033 12.5221 7.567C12.9207 7.52367 13.3194 7.489 13.7181 7.463C13.7007 6.75233 13.6877 6.046 13.6791 5.344C13.6704 4.63333 13.6747 3.93133 13.6921 3.238C13.3454 3.87067 12.9684 4.57267 12.5611 5.344C12.1624 6.10667 11.7594 6.89967 11.3521 7.723ZM20.0981 8.958C19.9768 9.48667 19.8641 9.99367 19.7601 10.479C19.6648 10.9643 19.5695 11.441 19.4741 11.909C19.4308 12.0477 19.3701 12.1387 19.2921 12.182C19.2228 12.2253 19.0885 12.2253 18.8891 12.182C18.6551 12.1213 18.4471 12.0737 18.2651 12.039C18.0831 12.0043 17.9098 11.9437 17.7451 11.857C17.5805 11.7617 17.4678 11.649 17.4071 11.519C17.3465 11.3803 17.3248 11.1983 17.3421 10.973C17.3595 10.791 17.3855 10.5267 17.4201 10.18C17.4461 9.83333 17.4808 9.44333 17.5241 9.01C17.5675 8.568 17.6195 8.09567 17.6801 7.593C17.7321 7.09033 17.7885 6.58767 17.8491 6.085C17.9185 5.58233 17.9921 5.097 18.0701 4.629C18.1481 4.15233 18.2305 3.72767 18.3171 3.355C18.4038 2.97367 18.4991 2.66167 18.6031 2.419C18.7071 2.16767 18.8155 2.01167 18.9281 1.951C19.4655 1.70833 20.0245 1.47 20.6051 1.236C21.1945 1.002 21.7708 0.837333 22.3341 0.741999C22.9061 0.638 23.4435 0.629333 23.9461 0.716C24.4575 0.794 24.9038 1.01933 25.2851 1.392C25.5885 1.72133 25.8615 2.07667 26.1041 2.458C26.3555 2.83067 26.5505 3.29 26.6891 3.836C26.8018 4.41667 26.7585 4.89333 26.5591 5.266C26.2558 5.864 25.7531 6.41433 25.0511 6.917C24.3578 7.41967 23.5258 7.88767 22.5551 8.321C22.7545 8.54633 22.9711 8.78467 23.2051 9.036C23.4478 9.28733 23.6948 9.53867 23.9461 9.79C24.1975 10.0413 24.4445 10.284 24.6871 10.518C24.9385 10.752 25.1725 10.9557 25.3891 11.129C25.5625 11.2763 25.6405 11.3933 25.6231 11.48C25.6058 11.5667 25.5321 11.6577 25.4021 11.753C25.2461 11.8743 25.1118 11.948 24.9991 11.974C24.8951 11.9913 24.7651 12.013 24.6091 12.039C24.4185 12.091 24.2061 12.104 23.9721 12.078C23.7468 12.0607 23.4825 11.961 23.1791 11.779C22.9798 11.6403 22.7501 11.467 22.4901 11.259C22.2301 11.051 21.9615 10.8213 21.6841 10.57C21.4068 10.3187 21.1295 10.0587 20.8521 9.79C20.5748 9.51267 20.3235 9.23533 20.0981 8.958ZM21.4891 3.68C21.3505 4.122 21.2161 4.59433 21.0861 5.097C20.9561 5.59967 20.8088 6.137 20.6441 6.709C21.2421 6.50967 21.7708 6.267 22.2301 5.981C22.6981 5.68633 23.0881 5.39167 23.4001 5.097C23.7121 4.79367 23.9375 4.50767 24.0761 4.239C24.2148 3.97033 24.2581 3.76233 24.2061 3.615C24.1021 3.37233 23.7945 3.251 23.2831 3.251C23.0318 3.251 22.7545 3.28133 22.4511 3.342C22.1478 3.40267 21.8271 3.51533 21.4891 3.68ZM36.1214 2.393C35.9134 3.043 35.6881 3.771 35.4454 4.577C35.2028 5.383 34.9601 6.21067 34.7174 7.06C34.4834 7.90933 34.2538 8.75433 34.0284 9.595C33.8118 10.4357 33.6168 11.2157 33.4434 11.935C33.4434 12.0563 33.4088 12.1343 33.3394 12.169C33.2788 12.2123 33.1921 12.2297 33.0794 12.221C32.9668 12.221 32.8324 12.1993 32.6764 12.156C32.5291 12.1213 32.3688 12.0823 32.1954 12.039C31.8401 11.935 31.5628 11.8093 31.3634 11.662C31.1641 11.506 31.1034 11.272 31.1814 10.96C31.2161 10.648 31.2681 10.2883 31.3374 9.881C31.4068 9.47367 31.4891 9.01867 31.5844 8.516C31.2204 8.568 30.8608 8.62 30.5054 8.672C30.1588 8.71533 29.8034 8.76733 29.4394 8.828C29.3008 9.426 29.1881 9.98933 29.1014 10.518C29.0148 11.038 28.9368 11.506 28.8674 11.922C28.8328 12.0693 28.7764 12.1647 28.6984 12.208C28.6291 12.2513 28.4818 12.247 28.2564 12.195C28.0398 12.1343 27.8144 12.0737 27.5804 12.013C27.3551 11.9523 27.1601 11.8743 26.9954 11.779C26.7961 11.6837 26.6531 11.5753 26.5664 11.454C26.4798 11.324 26.4624 11.1463 26.5144 10.921C26.6444 10.323 26.7658 9.62533 26.8784 8.828C26.9911 8.03067 27.0994 7.19867 27.2034 6.332C27.3074 5.46533 27.4071 4.603 27.5024 3.745C27.6064 2.87833 27.7104 2.081 27.8144 1.353C27.8838 1.07567 27.9834 0.911 28.1134 0.858999C28.2434 0.806999 28.4341 0.828666 28.6854 0.923999C28.9628 1.002 29.2574 1.11033 29.5694 1.249C29.8901 1.379 30.1674 1.522 30.4014 1.678C30.5314 1.756 30.6311 1.82967 30.7004 1.899C30.7784 1.96833 30.8304 2.03767 30.8564 2.107C30.8911 2.17633 30.9041 2.25433 30.8954 2.341C30.8868 2.42767 30.8694 2.52733 30.8434 2.64C30.7048 3.134 30.5574 3.71467 30.4014 4.382C30.2541 5.04933 30.0938 5.76433 29.9204 6.527C30.2844 6.48367 30.6398 6.449 30.9864 6.423C31.3418 6.397 31.6841 6.371 32.0134 6.345C32.2301 5.42633 32.4381 4.51633 32.6374 3.615C32.8454 2.705 33.0491 1.88167 33.2484 1.145C33.3264 0.867666 33.4348 0.711666 33.5734 0.676999C33.7208 0.633666 33.9288 0.650999 34.1974 0.728999C34.4488 0.798333 34.7088 0.898 34.9774 1.028C35.2461 1.14933 35.5018 1.288 35.7444 1.444C35.9698 1.60867 36.1041 1.75167 36.1474 1.873C36.1994 1.99433 36.1908 2.16767 36.1214 2.393ZM41.422 9.543C40.772 9.62967 40.122 9.72067 39.472 9.816C38.8306 9.90267 38.263 10.011 37.769 10.141C37.5956 10.479 37.444 10.7953 37.314 11.09C37.184 11.376 37.0583 11.6577 36.937 11.935C36.8676 12.0823 36.781 12.169 36.677 12.195C36.5816 12.221 36.4343 12.1993 36.235 12.13C36.1223 12.0867 36.001 12.039 35.871 11.987C35.7323 11.9263 35.5936 11.8613 35.455 11.792C35.351 11.7227 35.26 11.6663 35.182 11.623C35.104 11.571 35.0433 11.5103 35 11.441C34.9566 11.3717 34.935 11.285 34.935 11.181C34.9263 11.0683 34.948 10.921 35 10.739C35.208 10.141 35.481 9.439 35.819 8.633C36.1483 7.827 36.5036 6.995 36.885 6.137C37.275 5.279 37.6693 4.434 38.068 3.602C38.4753 2.76133 38.861 2.016 39.225 1.366C39.355 1.132 39.524 0.941333 39.732 0.793999C39.94 0.646666 40.2476 0.590332 40.655 0.624999C41.0103 0.642333 41.3266 0.672666 41.604 0.716C41.8813 0.750666 42.1326 0.794 42.358 0.845999C42.592 0.897999 42.8043 0.954333 42.995 1.015C43.1943 1.07567 43.3936 1.132 43.593 1.184C43.8616 1.27933 44.0306 1.405 44.1 1.561C44.178 1.717 44.204 1.92067 44.178 2.172C44.126 2.78733 44.0826 3.49367 44.048 4.291C44.0133 5.08833 43.9873 5.92033 43.97 6.787C43.9526 7.65367 43.9396 8.52467 43.931 9.4C43.931 10.2667 43.9353 11.0727 43.944 11.818C43.944 11.974 43.9093 12.0823 43.84 12.143C43.7793 12.2037 43.6363 12.234 43.411 12.234C43.1856 12.234 42.9776 12.2253 42.787 12.208C42.5963 12.1993 42.4013 12.1603 42.202 12.091C41.994 12.0303 41.8466 11.9523 41.76 11.857C41.682 11.7617 41.6256 11.5927 41.591 11.35C41.5563 11.0987 41.526 10.8257 41.5 10.531C41.474 10.2277 41.448 9.89833 41.422 9.543ZM38.939 7.723C39.329 7.66233 39.719 7.61033 40.109 7.567C40.5076 7.52367 40.9063 7.489 41.305 7.463C41.2876 6.75233 41.2746 6.046 41.266 5.344C41.2573 4.63333 41.2616 3.93133 41.279 3.238C40.9323 3.87067 40.5553 4.57267 40.148 5.344C39.7493 6.10667 39.3463 6.89967 38.939 7.723ZM50.428 7.749C50.6014 6.61367 50.8137 5.49567 51.065 4.395C51.325 3.29433 51.5807 2.28033 51.832 1.353C51.9014 1.10167 52.0054 0.945666 52.144 0.885C52.2914 0.824333 52.5037 0.828666 52.781 0.898C52.911 0.932666 53.028 0.963 53.132 0.988999C53.236 1.015 53.3357 1.04967 53.431 1.093C53.535 1.13633 53.6434 1.18833 53.756 1.249C53.8687 1.30967 53.9987 1.38767 54.146 1.483C54.3974 1.639 54.536 1.79933 54.562 1.964C54.5967 2.12 54.5794 2.31067 54.51 2.536C54.3107 3.17733 54.1027 3.90533 53.886 4.72C53.6694 5.53467 53.4527 6.36233 53.236 7.203C53.028 8.04367 52.8244 8.867 52.625 9.673C52.4344 10.4703 52.2697 11.1723 52.131 11.779C52.079 12.1083 51.819 12.221 51.351 12.117C50.9524 12.039 50.545 11.9263 50.129 11.779C49.7477 11.6317 49.479 11.3717 49.323 10.999C49.2017 10.7303 49.076 10.4183 48.946 10.063C48.8247 9.70767 48.699 9.32633 48.569 8.919C48.439 8.503 48.309 8.074 48.179 7.632C48.049 7.18133 47.9277 6.73067 47.815 6.28C47.7197 6.81733 47.62 7.35467 47.516 7.892C47.4207 8.42933 47.3254 8.945 47.23 9.439C47.1434 9.92433 47.061 10.3793 46.983 10.804C46.9137 11.22 46.8574 11.584 46.814 11.896C46.7794 12.0433 46.723 12.1343 46.645 12.169C46.567 12.2123 46.4154 12.2037 46.19 12.143C45.982 12.091 45.7697 12.039 45.553 11.987C45.345 11.9263 45.1414 11.8353 44.942 11.714C44.7514 11.6187 44.6257 11.5103 44.565 11.389C44.4957 11.259 44.4697 11.0813 44.487 10.856C44.5044 10.622 44.5347 10.2883 44.578 9.855C44.6127 9.42167 44.6647 8.932 44.734 8.386C44.7947 7.83133 44.8684 7.242 44.955 6.618C45.033 5.98533 45.1197 5.357 45.215 4.733C45.3104 4.109 45.4057 3.50667 45.501 2.926C45.605 2.34533 45.7047 1.82967 45.8 1.379C45.8607 1.119 45.969 0.958666 46.125 0.898C46.281 0.828666 46.4934 0.828666 46.762 0.898C47.0827 0.993333 47.3947 1.08867 47.698 1.184C48.0014 1.27933 48.3177 1.405 48.647 1.561C48.9157 1.67367 49.1064 1.81667 49.219 1.99C49.3317 2.15467 49.414 2.40167 49.466 2.731C49.5094 2.98233 49.5657 3.303 49.635 3.693C49.7044 4.083 49.7824 4.50767 49.869 4.967C49.9557 5.41767 50.0467 5.88567 50.142 6.371C50.2374 6.84767 50.3327 7.307 50.428 7.749Z" fill="white"/>
</svg>
