<svg width="1784" height="1784" viewBox="0 0 1784 1784" fill="none" xmlns="http://www.w3.org/2000/svg">
<rect width="1784" height="1784" rx="12" fill="white"/>
<path d="M1157.2 617.624C1116.08 623.107 1073.25 628.247 1028.7 633.044C984.843 637.841 938.583 643.667 889.924 650.52C880.329 678.619 871.763 709.459 864.224 743.04C857.371 776.621 848.119 811.916 836.468 848.924C856.343 846.868 876.217 845.155 896.092 843.784C916.652 841.728 937.555 840.357 958.8 839.672C992.381 837.616 1016.71 848.239 1031.79 871.54C1040.01 885.247 1046.18 898.953 1050.29 912.66C1055.09 925.681 1059.2 939.045 1062.63 952.752C1068.11 968.515 1068.11 979.48 1062.63 985.648C1057.83 991.131 1046.18 994.9 1027.68 996.956C988.612 1003.12 949.205 1009.98 909.456 1017.52C869.707 1025.05 830.3 1032.94 791.236 1041.16C778.215 1093.93 766.564 1144.3 756.284 1192.28C746.689 1239.56 737.78 1281.71 729.556 1318.72C728.871 1331.06 723.045 1338.25 712.08 1340.31C701.115 1343.05 687.751 1343.05 671.988 1340.31C656.225 1338.25 639.435 1334.14 621.616 1327.97C604.483 1321.8 589.405 1315.98 576.384 1310.5C559.251 1302.27 548.971 1293.36 545.544 1283.77C542.117 1274.17 540.404 1260.47 540.404 1242.65C541.089 1223.46 544.173 1196.39 549.656 1161.44C554.453 1125.8 560.279 1086.05 567.132 1042.19C573.985 997.641 581.181 950.353 588.72 900.324C596.259 850.295 602.769 800.951 608.252 752.292C614.42 702.948 618.875 656.003 621.616 611.456C624.357 566.909 624.7 527.845 622.644 494.264C652.113 486.04 685.009 478.844 721.332 472.676C758.34 465.823 797.061 459.997 837.496 455.2C877.931 449.717 919.051 445.263 960.856 441.836C1003.35 438.409 1045.15 436.011 1086.27 434.64C1096.55 434.64 1105.12 435.325 1111.97 436.696C1119.51 437.381 1126.02 439.437 1131.5 442.864C1137.67 445.605 1143.5 450.06 1148.98 456.228C1154.46 461.711 1160.29 469.249 1166.46 478.844C1184.96 509.684 1195.58 539.839 1198.32 569.308C1201.07 587.127 1200.04 599.12 1195.24 605.288C1190.44 610.771 1177.76 614.883 1157.2 617.624Z" fill="black"/>
</svg>
