<svg width="43" height="43" viewBox="0 0 43 43" fill="none" xmlns="http://www.w3.org/2000/svg">
<g clip-path="url(#clip0_3628_143)">
<path d="M41.5 1.5V41.5H1.5V1.5H41.5ZM42.5 0.5H0.5V42.5H42.5V0.5Z" fill="white"/>
<path d="M21.5 33.5C28.1274 33.5 33.5 28.1274 33.5 21.5C33.5 14.8726 28.1274 9.5 21.5 9.5C14.8726 9.5 9.5 14.8726 9.5 21.5C9.5 28.1274 14.8726 33.5 21.5 33.5Z" fill="white"/>
<path d="M21.5 10C27.8 10 33 15.2 33 21.5C33 27.8 27.8 33 21.5 33C15.2 33 10 27.8 10 21.5C10 15.2 15.2 10 21.5 10ZM21.5 9C14.6 9 9 14.6 9 21.5C9 28.4 14.6 34 21.5 34C28.4 34 34 28.4 34 21.5C34 14.6 28.4 9 21.5 9Z" fill="#808080"/>
<path d="M21.5 33.5C28.1274 33.5 33.5 28.1274 33.5 21.5C33.5 14.8726 28.1274 9.5 21.5 9.5C14.8726 9.5 9.5 14.8726 9.5 21.5C9.5 28.1274 14.8726 33.5 21.5 33.5Z" fill="white"/>
<path d="M21.5 10C27.8 10 33 15.2 33 21.5C33 27.8 27.8 33 21.5 33C15.2 33 10 27.8 10 21.5C10 15.2 15.2 10 21.5 10ZM21.5 9C14.6 9 9 14.6 9 21.5C9 28.4 14.6 34 21.5 34C28.4 34 34 28.4 34 21.5C34 14.6 28.4 9 21.5 9Z" fill="white"/>
</g>
<defs>
<clipPath id="clip0_3628_143">
<rect width="43" height="43" fill="white"/>
</clipPath>
</defs>
</svg>
